<svg width="40" height="74" viewBox="0 0 40 74" fill="none" xmlns="http://www.w3.org/2000/svg">
<path d="M19.4462 74C15.4256 74 11.9385 73.3823 8.98462 72.1469C6.03077 70.9115 3.77436 68.729 2.21538 65.5993C0.738461 62.4697 0 58.0634 0 52.3806V48.1803C1.96923 48.1803 3.97949 48.1803 6.03077 48.1803C8.08205 48.1803 10.0923 48.1803 12.0615 48.1803V53.369C12.0615 56.8281 12.3897 59.5047 13.0462 61.399C13.7026 63.2933 14.6051 64.611 15.7538 65.3523C16.9026 66.0111 18.2154 66.3406 19.6923 66.3406C22.0718 66.3406 23.959 65.5582 25.3538 63.9933C26.8308 62.3461 27.5692 59.2988 27.5692 54.8514C27.5692 51.557 27.0769 49.0863 26.0923 47.4391C25.1077 45.7919 23.5487 44.4741 21.4154 43.4858C19.3641 42.4151 16.6974 41.2209 13.4154 39.9032C10.7077 38.6678 8.36923 37.2265 6.4 35.5793C4.43077 33.9321 2.95385 31.8319 1.96923 29.2788C0.984616 26.7257 0.492308 23.5548 0.492308 19.7663C0.492308 15.1541 1.06667 11.4068 2.21538 8.52421C3.44615 5.55927 5.49744 3.41792 8.36923 2.10016C11.241 0.700054 15.0974 0 19.9385 0C26.1744 0 30.9333 1.44129 34.2154 4.32387C37.4974 7.1241 39.1385 11.2421 39.1385 16.6778V25.202C37.2513 25.202 35.3231 25.202 33.3538 25.202C31.4667 25.202 29.5385 25.202 27.5692 25.202V20.1369C27.5692 16.3484 26.9538 13.6305 25.7231 11.9833C24.5744 10.2538 22.6872 9.38898 20.0615 9.38898C17.3538 9.38898 15.3846 10.2126 14.1538 11.8598C13.0051 13.4246 12.4308 15.9366 12.4308 19.3957C12.4308 22.3606 13.0051 24.6667 14.1538 26.3139C15.3026 27.8787 16.7795 29.1141 18.5846 30.02C20.4718 30.926 22.4 31.7496 24.3692 32.4908C28.0615 33.8909 31.0564 35.3322 33.3538 36.8147C35.6513 38.2972 37.3333 40.2738 38.4 42.7446C39.4667 45.2154 40 48.7156 40 53.2454C40 58.4341 39.1385 62.552 37.4154 65.5993C35.7744 68.5643 33.3949 70.7056 30.2769 72.0234C27.241 73.3411 23.6308 74 19.4462 74Z" fill="white"/>
</svg>
